<?xml version="1.0" standalone="no"?>
<!DOCTYPE svg PUBLIC "-//W3C//DTD SVG 20010904//EN"
 "http://www.w3.org/TR/2001/REC-SVG-20010904/DTD/svg10.dtd">
<svg version="1.0" xmlns="http://www.w3.org/2000/svg"
 width="500.000000pt" height="500.000000pt" viewBox="0 0 500.000000 500.000000"
 preserveAspectRatio="xMidYMid meet">

<g transform="translate(0.000000,500.000000) scale(0.100000,-0.100000)"
fill="#000000" stroke="none">
<path d="M485 4917 c-3 -7 -4 -140 -3 -297 l3 -285 152 -2 152 -2 3 142 3 142
1707 3 1707 2 3 -142 3 -143 110 -3 c61 -2 129 -1 153 3 l42 6 0 295 0 294
-2015 0 c-1614 0 -2017 -3 -2020 -13z"/>
<path d="M484 4131 c-2 -2 -4 -71 -4 -153 l0 -148 38 0 c20 0 929 -1 2020 -2
l1982 -3 0 155 0 155 -2016 0 c-1109 0 -2018 -2 -2020 -4z"/>
<path d="M480 3159 l0 -472 68 7 c37 4 106 12 155 18 l87 11 0 453 0 454 -155
0 -155 0 0 -471z"/>
<path d="M1274 3617 c-3 -8 -3 -286 -2 -618 4 -594 4 -605 26 -684 44 -154
135 -320 270 -495 141 -182 455 -480 690 -654 l92 -68 0 -289 c0 -159 -2 -289
-5 -289 -9 0 -213 138 -315 213 -612 450 -1010 914 -1164 1356 -20 57 -36 109
-36 115 0 9 36 17 112 25 62 7 114 14 117 17 2 2 -1 28 -8 57 -7 28 -15 96
-18 151 l-6 98 -45 -6 c-24 -3 -142 -17 -261 -31 -119 -15 -222 -28 -230 -31
-30 -10 12 -290 70 -465 70 -213 231 -495 414 -724 102 -129 427 -454 580
-582 284 -235 638 -481 877 -607 l74 -38 149 87 c191 112 349 218 545 364 809
605 1281 1274 1317 1866 l6 101 -234 27 c-129 16 -253 31 -276 34 l-43 6 0
-84 c0 -46 -7 -115 -15 -153 -8 -38 -14 -71 -12 -72 1 -1 52 -8 112 -15 61 -6
113 -14 117 -18 12 -10 -49 -178 -107 -296 -121 -247 -292 -473 -551 -725
-217 -211 -459 -406 -732 -589 l-122 -81 1 292 0 293 82 60 c258 189 556 474
709 678 116 155 190 286 237 421 l36 101 3 633 3 632 -156 0 -155 0 0 -594 c0
-576 -1 -596 -21 -662 -26 -86 -57 -148 -122 -244 -149 -223 -391 -467 -684
-692 l-92 -70 -63 48 c-415 319 -705 641 -817 907 l-26 62 -5 620 -5 620 -153
3 c-121 2 -153 0 -158 -11z"/>
<path d="M4210 3175 c0 -364 3 -455 13 -455 7 0 67 -7 132 -15 66 -8 130 -15
143 -15 l22 0 0 470 0 470 -155 0 -155 0 0 -455z"/>
<path d="M2421 3334 c-66 -18 -110 -44 -150 -90 -108 -122 -107 -303 2 -421
l41 -44 -49 -162 c-27 -89 -50 -168 -53 -174 -3 -10 59 -13 291 -13 l294 0
-54 176 -55 176 41 42 c111 114 113 295 4 416 -52 58 -95 83 -171 99 -65 14
-74 13 -141 -5z"/>
</g>
</svg>
