<svg width="200" height="75" viewBox="0 0 200 75" fill="none" xmlns="http://www.w3.org/2000/svg">
<g filter="url(#filter0_d_169_34)">
<path d="M21.4978 56.596C18.3618 56.596 15.5298 55.956 13.0018 54.676C10.5058 53.364 8.53783 51.428 7.09783 48.868C5.65783 46.308 4.93783 43.156 4.93783 39.412C4.93783 35.668 5.65783 32.436 7.09783 29.716C8.56983 26.996 10.5698 24.916 13.0978 23.476C15.6578 22.004 18.5698 21.268 21.8338 21.268C25.6098 21.268 28.5058 21.796 30.5218 22.852C32.5378 23.908 33.5458 25.476 33.5458 27.556C33.5458 29.156 33.1138 30.484 32.2498 31.54C31.3858 32.564 30.2018 33.076 28.6978 33.076C27.4178 33.076 26.1698 32.916 24.9538 32.596C23.7698 32.244 22.3778 32.068 20.7778 32.068C18.7298 32.068 17.1138 32.66 15.9298 33.844C14.7458 35.028 14.1538 36.58 14.1538 38.5C14.1538 40.388 14.7458 41.972 15.9298 43.252C17.1138 44.5 18.7298 45.124 20.7778 45.124C21.8658 45.124 22.8578 45.044 23.7538 44.884C24.6818 44.692 25.5778 44.5 26.4418 44.308C27.3378 44.116 28.2978 44.02 29.3218 44.02C31.0178 44.02 32.2658 44.58 33.0658 45.7C33.8658 46.788 34.2658 48.148 34.2658 49.78C34.2658 51.412 33.6738 52.74 32.4898 53.764C31.3058 54.756 29.7378 55.476 27.7858 55.924C25.8658 56.372 23.7698 56.596 21.4978 56.596ZM43.4485 66.388C41.3045 66.388 39.5445 66.036 38.1685 65.332C36.8245 64.628 35.7685 63.7 35.0005 62.548C34.3605 61.556 33.9925 60.516 33.8965 59.428C33.8325 58.34 34.0405 57.332 34.5205 56.404C35.0005 55.444 35.7205 54.708 36.6805 54.196C37.6725 53.652 38.6645 53.444 39.6565 53.572C40.6485 53.668 41.5605 54.036 42.3925 54.676C43.2245 55.284 43.8645 56.084 44.3125 57.076C44.7925 58.132 45.2725 58.9 45.7525 59.38C46.2645 59.892 46.9205 60.004 47.7205 59.716C48.4885 59.46 48.7605 58.756 48.5365 57.604C48.3445 56.452 47.9285 55.092 47.2885 53.524H45.5125C44.1365 53.524 42.7605 53.028 41.3845 52.036C40.0085 51.044 38.8565 49.476 37.9285 47.332L33.9925 38.212C33.3845 36.772 33.3205 35.444 33.8005 34.228C34.3125 33.012 35.2245 32.132 36.5365 31.588C37.7525 31.044 38.9525 31.012 40.1365 31.492C41.3205 31.972 42.2485 32.996 42.9205 34.564L46.5685 43.06C47.1765 44.436 47.8325 45.428 48.5365 46.036C49.2725 46.644 50.0405 46.74 50.8405 46.324C51.5445 45.94 51.9285 45.412 51.9925 44.74C52.0565 44.036 51.7205 43.188 50.9845 42.196C50.6645 41.748 50.2805 41.252 49.8325 40.708C49.4165 40.164 49.0325 39.54 48.6805 38.836C48.3605 38.1 48.2005 37.284 48.2005 36.388C48.2005 34.884 48.7125 33.652 49.7365 32.692C50.7605 31.7 52.1045 31.204 53.7685 31.204C55.2725 31.204 56.4725 31.684 57.3685 32.644C58.2965 33.604 58.7605 34.852 58.7605 36.388C58.7605 37.476 58.6325 38.676 58.3765 39.988C58.1205 41.3 57.8325 42.516 57.5125 43.636L54.0565 56.26C53.5445 58.148 52.8725 59.86 52.0405 61.396C51.2085 62.932 50.1045 64.148 48.7285 65.044C47.3525 65.94 45.5925 66.388 43.4485 66.388Z" fill="#9F54FF"/>
<path d="M65.8506 56.5C64.1866 56.5 62.9546 56.004 62.1546 55.012C61.3546 54.02 60.9546 52.692 60.9546 51.028V28.66C60.9546 26.228 61.6106 24.436 62.9226 23.284C64.2666 22.132 65.8666 21.556 67.7226 21.556C69.4826 21.556 70.9706 22.132 72.1866 23.284C73.4346 24.436 74.3466 26.26 74.9226 28.756L78.6666 45.028H79.9146L83.6586 28.756C84.2346 26.26 85.1466 24.436 86.3946 23.284C87.6746 22.132 89.1946 21.556 90.9546 21.556C92.8106 21.556 94.3946 22.132 95.7066 23.284C97.0506 24.436 97.7226 26.228 97.7226 28.66V51.028C97.7226 52.692 97.3066 54.02 96.4746 55.012C95.6746 56.004 94.4426 56.5 92.7786 56.5C91.1786 56.5 89.9466 56.004 89.0826 55.012C88.2186 54.02 87.7866 52.692 87.7866 51.028V38.116C87.7866 37.796 87.7386 37.508 87.6426 37.252C87.5786 36.964 87.3706 36.82 87.0186 36.82C86.7306 36.82 86.5226 36.964 86.3946 37.252C86.2666 37.508 86.1706 37.796 86.1066 38.116L84.2826 50.212C84.0586 51.524 83.7866 52.66 83.4666 53.62C83.1786 54.548 82.7146 55.268 82.0746 55.78C81.4346 56.26 80.5066 56.5 79.2906 56.5C78.1066 56.5 77.1786 56.26 76.5066 55.78C75.8666 55.268 75.3866 54.548 75.0666 53.62C74.7786 52.66 74.5386 51.524 74.3466 50.212L72.4746 38.116C72.4426 37.796 72.3626 37.508 72.2346 37.252C72.1066 36.964 71.8826 36.82 71.5626 36.82C71.2426 36.82 71.0346 36.964 70.9386 37.252C70.8426 37.508 70.7946 37.796 70.7946 38.116V51.028C70.7946 52.692 70.3626 54.02 69.4986 55.012C68.6666 56.004 67.4506 56.5 65.8506 56.5ZM107.662 56.5C105.294 56.5 103.438 55.86 102.094 54.58C100.782 53.3 100.126 51.508 100.126 49.204C100.126 46.9 100.894 45.236 102.43 44.212C103.966 43.156 105.934 42.628 108.334 42.628C109.742 42.628 111.022 42.724 112.174 42.916C113.326 43.108 114.366 43.38 115.294 43.732H115.438V43.012C115.438 42.276 115.166 41.7 114.622 41.284C114.078 40.836 113.39 40.628 112.558 40.66C111.758 40.66 111.07 40.708 110.494 40.804C109.95 40.9 109.262 41.06 108.43 41.284C106.894 41.668 105.566 41.636 104.446 41.188C103.326 40.74 102.558 39.86 102.142 38.548C101.758 37.172 101.838 36.02 102.382 35.092C102.958 34.164 103.822 33.444 104.974 32.932C105.966 32.452 107.07 32.052 108.286 31.732C109.534 31.412 110.878 31.252 112.318 31.252C116.51 31.252 119.582 32.276 121.534 34.324C123.518 36.34 124.51 39.732 124.51 44.5V51.94C124.51 53.252 124.11 54.34 123.31 55.204C122.51 56.068 121.406 56.5 119.998 56.5C118.462 56.5 117.31 56.068 116.542 55.204C115.806 54.34 115.438 53.284 115.438 52.036V50.932H114.478C114.478 51.764 114.318 52.612 113.998 53.476C113.71 54.34 113.086 55.06 112.126 55.636C111.198 56.212 109.71 56.5 107.662 56.5ZM108.142 45.988C108.142 46.532 108.334 46.916 108.718 47.14C109.134 47.364 110.014 47.476 111.358 47.476C112.574 47.476 113.422 47.364 113.902 47.14C114.382 46.916 114.622 46.532 114.622 45.988C114.622 45.476 114.382 45.124 113.902 44.932C113.422 44.708 112.574 44.596 111.358 44.596C110.014 44.596 109.134 44.708 108.718 44.932C108.334 45.124 108.142 45.476 108.142 45.988ZM139.322 56.644C137.626 56.644 136.09 56.26 134.714 55.492C133.37 54.724 132.314 53.636 131.546 52.228C130.778 50.788 130.394 49.108 130.394 47.188V38.74L128.618 38.98C127.658 39.108 126.81 38.772 126.074 37.972C125.338 37.172 124.97 36.164 124.97 34.948C124.97 33.732 125.338 32.74 126.074 31.972C126.81 31.172 127.658 30.836 128.618 30.964L130.394 31.204L130.346 27.94C130.314 26.66 130.682 25.652 131.45 24.916C132.218 24.148 133.338 23.764 134.81 23.764C136.282 23.764 137.418 24.148 138.218 24.916C139.018 25.652 139.386 26.66 139.322 27.94L139.226 31.204L141.77 30.868C143.498 30.612 144.81 30.932 145.706 31.828C146.602 32.692 147.05 33.732 147.05 34.948C147.05 36.164 146.602 37.22 145.706 38.116C144.842 38.98 143.578 39.3 141.914 39.076L139.226 38.74V45.892C139.226 46.308 139.37 46.692 139.658 47.044C139.946 47.364 140.298 47.46 140.714 47.332C141.194 47.204 141.69 46.932 142.202 46.516C142.746 46.1 143.434 45.892 144.266 45.892C145.514 45.892 146.474 46.34 147.146 47.236C147.818 48.132 148.154 49.236 148.154 50.548C148.154 51.572 147.786 52.564 147.05 53.524C146.346 54.452 145.338 55.204 144.026 55.78C142.714 56.356 141.146 56.644 139.322 56.644ZM149.023 44.02C149.023 41.492 149.519 39.268 150.511 37.348C151.535 35.428 152.975 33.924 154.831 32.836C156.719 31.748 158.959 31.204 161.551 31.204C163.567 31.204 165.375 31.572 166.975 32.308C168.607 33.044 169.887 34.036 170.815 35.284C171.743 36.5 172.207 37.844 172.207 39.316C172.207 40.852 171.759 41.94 170.863 42.58C169.967 43.22 168.639 43.54 166.879 43.54H156.799C156.799 44.372 157.119 45.06 157.759 45.604C158.431 46.148 159.551 46.42 161.119 46.42C161.919 46.42 162.655 46.34 163.327 46.18C164.031 46.02 164.735 45.876 165.439 45.748C166.175 45.588 166.991 45.508 167.887 45.508C169.167 45.508 170.223 45.972 171.055 46.9C171.887 47.796 172.303 49.044 172.303 50.644C172.303 52.532 171.327 54.004 169.375 55.06C167.455 56.116 164.927 56.644 161.791 56.644C159.583 56.644 157.503 56.212 155.551 55.348C153.631 54.484 152.063 53.124 150.847 51.268C149.631 49.38 149.023 46.964 149.023 44.02ZM164.575 41.956C165.055 41.956 165.215 41.732 165.055 41.284C164.927 40.836 164.543 40.372 163.903 39.892C163.263 39.412 162.335 39.172 161.119 39.172C159.711 39.172 158.655 39.476 157.951 40.084C157.279 40.692 156.943 41.316 156.943 41.956H164.575Z" fill="white"/>
</g>
<defs>
<filter id="filter0_d_169_34" x="0.937805" y="21.268" width="175.365" height="53.12" filterUnits="userSpaceOnUse" color-interpolation-filters="sRGB">
<feFlood flood-opacity="0" result="BackgroundImageFix"/>
<feColorMatrix in="SourceAlpha" type="matrix" values="0 0 0 0 0 0 0 0 0 0 0 0 0 0 0 0 0 0 127 0" result="hardAlpha"/>
<feOffset dy="4"/>
<feGaussianBlur stdDeviation="2"/>
<feComposite in2="hardAlpha" operator="out"/>
<feColorMatrix type="matrix" values="0 0 0 0 0 0 0 0 0 0 0 0 0 0 0 0 0 0 0.25 0"/>
<feBlend mode="normal" in2="BackgroundImageFix" result="effect1_dropShadow_169_34"/>
<feBlend mode="normal" in="SourceGraphic" in2="effect1_dropShadow_169_34" result="shape"/>
</filter>
</defs>
</svg>
